<svg width="107" height="178" viewBox="0 0 107 178" fill="none" xmlns="http://www.w3.org/2000/svg">
<circle cx="21.6297" cy="46.2776" r="11.4266" fill="#FCFADA" style="fill:#FCFADA;fill:color(display-p3 0.9882 0.9804 0.8549);fill-opacity:1;"/>
<circle cx="73.6204" cy="21.7103" r="11.4266" fill="#E3C3FF" style="fill:#E3C3FF;fill:color(display-p3 0.8902 0.7647 1.0000);fill-opacity:1;"/>
<circle cx="37.0555" cy="11.4266" r="11.4266" fill="#F8F0FF" style="fill:#F8F0FF;fill:color(display-p3 0.9725 0.9412 1.0000);fill-opacity:1;"/>
<path d="M21.2881 52.1142C20.2308 52.017 19.3376 51.7071 18.6085 51.1845C17.8915 50.662 17.375 49.9389 17.0591 49.0154L18.408 48.3227C18.5417 48.9789 18.8759 49.5379 19.4106 49.9997C19.9453 50.4493 20.5711 50.741 21.2881 50.8747L21.2881 46.6457C20.4982 46.4755 19.842 46.2932 19.3194 46.0988C18.809 45.8922 18.3837 45.5884 18.0434 45.1874C17.7032 44.7864 17.533 44.2517 17.533 43.5833C17.533 42.9757 17.6849 42.4227 17.9887 41.9245C18.2925 41.4263 18.7239 41.0192 19.283 40.7032C19.8541 40.3751 20.5225 40.1806 21.2881 40.1199L21.2881 38.2788L22.5458 38.2788L22.5458 40.1381C23.4451 40.211 24.1864 40.4541 24.7697 40.8672C25.3652 41.2683 25.8756 41.8637 26.3009 42.6536L25.1161 43.5833C24.8122 42.8785 24.4659 42.3559 24.077 42.0156C23.6882 41.6754 23.1778 41.4627 22.5458 41.3776L22.5458 45.6613C23.3357 45.8315 23.9859 46.0198 24.4963 46.2264C25.0188 46.4208 25.4502 46.7247 25.7905 47.1378C26.1429 47.551 26.3191 48.1039 26.3191 48.7966C26.3191 49.7323 25.9789 50.4979 25.2983 51.0934C24.6178 51.6767 23.7003 52.017 22.5458 52.1142L22.5458 53.9553L21.2881 53.9553L21.2881 52.1142ZM21.2881 41.3594C20.5103 41.4323 19.9209 41.6511 19.5199 42.0156C19.1189 42.3802 18.9184 42.8663 18.9184 43.4739C18.9184 44.0208 19.1189 44.4339 19.5199 44.7134C19.9331 44.993 20.5225 45.2238 21.2881 45.4061L21.2881 41.3594ZM22.5458 50.9111C24.1499 50.7774 24.952 50.1091 24.952 48.906C24.952 48.347 24.7393 47.9217 24.314 47.63C23.9008 47.3383 23.3114 47.1014 22.5458 46.9191L22.5458 50.9111Z" fill="#3E0E68" style="fill:#3E0E68;fill:color(display-p3 0.2431 0.0549 0.4078);fill-opacity:1;"/>
<path d="M73.2788 27.5473C72.2216 27.4501 71.3284 27.1402 70.5992 26.6177C69.8822 26.0951 69.3658 25.372 69.0498 24.4485L70.3987 23.7558C70.5324 24.412 70.8666 24.971 71.4013 25.4328C71.936 25.8824 72.5618 26.1741 73.2788 26.3078L73.2788 22.0788C72.4889 21.9086 71.8327 21.7264 71.3101 21.5319C70.7997 21.3253 70.3744 21.0215 70.0341 20.6205C69.6939 20.2195 69.5237 19.6848 69.5237 19.0164C69.5237 18.4088 69.6756 17.8558 69.9795 17.3576C70.2833 16.8594 70.7147 16.4523 71.2737 16.1363C71.8448 15.8082 72.5132 15.6137 73.2788 15.553L73.2788 13.7119L74.5366 13.7119L74.5366 15.5712C75.4358 15.6441 76.1771 15.8872 76.7604 16.3004C77.3559 16.7014 77.8663 17.2968 78.2916 18.0867L77.1068 19.0164C76.803 18.3116 76.4566 17.789 76.0678 17.4487C75.6789 17.1085 75.1685 16.8958 74.5366 16.8107L74.5366 21.0944C75.3265 21.2646 75.9766 21.4529 76.487 21.6595C77.0096 21.854 77.441 22.1578 77.7812 22.5709C78.1336 22.9841 78.3099 23.537 78.3099 24.2297C78.3099 25.1655 77.9696 25.931 77.2891 26.5265C76.6085 27.1098 75.691 27.4501 74.5366 27.5473L74.5366 29.3884L73.2788 29.3884L73.2788 27.5473ZM73.2788 16.7925C72.5011 16.8654 71.9117 17.0842 71.5106 17.4487C71.1096 17.8133 70.9091 18.2994 70.9091 18.907C70.9091 19.4539 71.1096 19.8671 71.5106 20.1466C71.9238 20.4261 72.5132 20.657 73.2788 20.8392L73.2788 16.7925ZM74.5366 26.3442C76.1407 26.2106 76.9427 25.5422 76.9427 24.3391C76.9427 23.7801 76.7301 23.3548 76.3047 23.0631C75.8915 22.7714 75.3022 22.5345 74.5366 22.3522L74.5366 26.3442Z" fill="#3E0E68" style="fill:#3E0E68;fill:color(display-p3 0.2431 0.0549 0.4078);fill-opacity:1;"/>
<path d="M36.7139 17.2631C35.6566 17.1659 34.7634 16.856 34.0343 16.3335C33.3173 15.8109 32.8008 15.0879 32.4849 14.1643L33.8338 13.4716C33.9674 14.1278 34.3016 14.6868 34.8363 15.1486C35.371 15.5983 35.9969 15.8899 36.7139 16.0236L36.7139 11.7946C35.924 11.6245 35.2677 11.4422 34.7452 11.2477C34.2348 11.0411 33.8095 10.7373 33.4692 10.3363C33.1289 9.93529 32.9588 9.40059 32.9588 8.73221C32.9588 8.1246 33.1107 7.57167 33.4145 7.07342C33.7183 6.57518 34.1497 6.16808 34.7087 5.85212C35.2799 5.52401 35.9483 5.32957 36.7139 5.26881L36.7139 3.42773L37.9716 3.42773L37.9716 5.28704C38.8709 5.35995 39.6122 5.603 40.1955 6.01617C40.791 6.4172 41.3014 7.01266 41.7267 7.80256L40.5418 8.73221C40.238 8.02738 39.8917 7.50483 39.5028 7.16457C39.1139 6.8243 38.6035 6.61164 37.9716 6.52657L37.9716 10.8103C38.7615 10.9804 39.4117 11.1687 39.9221 11.3753C40.4446 11.5698 40.876 11.8736 41.2163 12.2868C41.5687 12.6999 41.7449 13.2529 41.7449 13.9455C41.7449 14.8813 41.4046 15.6469 40.7241 16.2423C40.0436 16.8256 39.1261 17.1659 37.9716 17.2631L37.9716 19.1042L36.7139 19.1042L36.7139 17.2631ZM36.7139 6.50834C35.9361 6.58126 35.3467 6.8 34.9457 7.16457C34.5447 7.52913 34.3442 8.01523 34.3442 8.62284C34.3442 9.16969 34.5447 9.58287 34.9457 9.86238C35.3589 10.1419 35.9483 10.3728 36.7139 10.5551L36.7139 6.50834ZM37.9716 16.06C39.5757 15.9264 40.3778 15.258 40.3778 14.0549C40.3778 13.4959 40.1651 13.0706 39.7398 12.7789C39.3266 12.4873 38.7372 12.2503 37.9716 12.068L37.9716 16.06Z" fill="#3E0E68" style="fill:#3E0E68;fill:color(display-p3 0.2431 0.0549 0.4078);fill-opacity:1;"/>
<path d="M29.888 68.8684C29.9187 69.5588 29.945 70.3366 29.9654 71.1302L29.9834 71.7141L29.3984 71.9745C28.3815 72.4277 27.2867 72.9323 26.3961 73.3445C25.9137 73.5686 26.1365 73.3984 25.8062 73.5494C25.162 73.8445 24.5845 74.168 23.95 74.4669C23.7421 74.5643 23.956 74.3501 23.738 74.4542C22.5332 75.031 21.4364 75.6497 20.2584 76.3012C18.3264 77.3739 16.4352 78.5166 14.748 79.8333C11.3283 82.5112 8.42877 85.8124 6.39932 89.6863C5.37894 91.5993 4.33277 94.0439 3.86237 96.2519C3.80684 96.5091 3.97029 96.3883 3.9689 96.4394C3.95159 97.2387 3.75511 96.923 3.61321 97.4159C3.05648 99.3783 2.78554 101.65 2.76233 103.62C2.75495 104.461 3.05433 103.632 2.87846 104.467C2.8668 104.525 2.72521 104.309 2.70457 104.537C2.65579 105.055 2.68429 106.047 2.68294 106.455C2.6775 107.241 2.68408 107.362 2.71777 108.102C2.76522 109.116 2.78619 110.316 2.93892 111.398C2.9721 111.629 3.09227 111.306 3.16 111.672C3.22691 112.044 3.33657 113.004 3.34773 113.338C3.35719 113.67 3.21598 113.548 3.19623 113.609C3.02586 114.122 3.53232 115.202 3.56592 115.339C4.14851 117.942 4.4557 120.21 5.06838 122.648C5.53066 124.478 6.13786 126.409 6.65061 128.139C6.65486 128.154 6.6591 128.168 6.66333 128.182C7.27654 130.256 7.76001 132.031 8.4484 134.022C8.52106 134.232 8.61598 133.925 8.70514 134.181C9.65259 136.903 10.6083 139.608 11.4874 142.348C11.5756 142.623 11.2912 142.331 11.3704 142.61C11.8574 144.317 12.5413 147.053 13.5795 147.775C13.9804 148.919 14.457 150.269 14.7025 151.339C14.8578 152.02 14.4554 151.454 14.8232 152.222C14.9058 152.395 14.9661 152.108 15.0787 152.371C15.5501 153.475 15.9653 154.752 16.444 155.843C16.5432 156.069 16.6522 155.958 16.6995 156.015C17.0907 156.499 17.0944 157.522 17.1397 157.726C17.3913 158.831 17.6905 159.714 17.9974 160.61C18.1169 160.958 18.2663 161.296 18.4577 161.633C18.6107 161.894 18.5889 161.495 18.7418 161.733C19.5197 162.958 20.9751 163.736 22.464 164.534C22.7937 164.713 22.4141 164.707 22.5687 164.8C23.2526 165.211 23.5474 165.016 24.2145 165.44C24.3539 165.53 24.2077 165.605 24.2272 165.632C24.5281 166.059 25.0428 165.982 25.1548 166.043C25.2566 166.096 25.3548 166.152 25.4497 166.209C26.5669 166.88 27.1836 167.597 28.3553 168.216C28.5059 168.295 28.2579 167.958 28.6755 168.187C31.4664 169.717 34.4987 171.198 37.4127 172.406C37.8647 172.593 37.4941 172.592 37.5175 172.617C37.9093 173.018 38.3308 172.818 38.4847 172.858C39.7006 173.183 40.7634 173.781 41.6914 173.633C46.8123 175.172 52.1524 175.52 57.4522 175.453C57.5198 175.452 57.4109 175.615 57.546 175.612C59.173 175.559 58.845 175.34 59.8651 174.923C60.12 174.818 60.9823 175.049 61.0595 175.061C61.3359 175.114 61.1002 175.382 61.1909 175.387C61.9447 175.41 61.6999 174.689 62.6681 174.508C62.6988 174.503 62.5975 174.664 62.6817 174.662C62.9436 174.655 63.182 174.551 63.4387 174.546C64.024 174.534 64.3165 174.845 65.1266 174.429C65.2284 174.374 64.9616 174.008 65.8189 173.806C66.1663 173.729 67.6504 173.293 68.0771 173.179C68.4986 173.073 68.2567 173.293 68.2879 173.289C69.4609 173.094 69.0611 173.302 69.7113 173.359C70.3648 173.407 69.9942 172.87 70.196 172.722C70.3973 172.576 71.2577 172.407 71.4761 172.374C71.6939 172.342 71.4771 172.52 71.665 172.477C72.9025 172.18 72.0582 171.982 72.4011 171.734C73.2053 171.143 74.0767 171.258 74.9086 170.913C75.133 170.82 74.909 170.81 75.0996 170.708C75.8477 170.305 76.3697 170.203 77.1685 169.632C77.2986 169.54 77.8509 168.931 78.3914 168.856C78.4685 168.845 78.3456 169.045 78.676 168.887C79.1675 168.654 80.0188 168.18 80.5008 167.838C80.8536 167.588 80.3369 167.689 80.8248 167.455C81.0416 167.349 80.7224 167.677 81.1253 167.471C81.403 167.329 81.9528 166.984 82.3861 166.697C82.5806 166.568 82.751 166.46 82.8675 166.386C83.2423 166.152 82.9639 166.159 82.9893 166.132C83.1458 165.97 83.8554 165.49 83.9239 165.456C87.1613 163.698 90.9727 162.53 91.6231 158.777C91.6238 158.774 91.6245 158.77 91.6251 158.767C91.6767 158.501 91.5008 158.651 91.5082 158.608C91.6714 157.641 91.8628 158.478 92.1408 157.84C91.8396 157.871 91.9813 157.49 92.1159 156.807C92.1808 156.478 92.0302 156.629 92.0264 156.596C91.9831 156.073 92.2791 155.787 92.343 155.714C92.5803 155.438 92.4832 155.046 92.6442 154.857C92.8042 154.669 92.8295 155.204 92.9943 154.562C92.9436 154.356 92.5621 154.767 92.6491 154.267C92.9738 152.373 94.1553 149.021 94.6204 147.559C95.0802 146.103 95.2086 145.629 95.5048 144.788C96.0415 143.27 95.6867 143.779 95.9034 142.801C96.1225 141.821 96.4149 142.423 96.5523 142.315C96.6886 142.21 96.6379 142.032 96.7422 141.881C96.8463 141.73 96.7968 142.112 96.9394 141.725C97.0817 141.337 97.2531 140.213 97.2002 140.043C97.0871 139.684 96.7166 140.098 97.1236 139.084C97.1472 139.026 97.199 139.256 97.2833 139.031C97.9487 137.242 98.5554 135.359 99.2013 133.567C99.2902 133.321 99.3432 133.582 99.3962 133.439C99.9468 131.952 99.5713 132.426 99.6014 131.525C99.8473 131.806 100.178 131.403 100.53 130.254C100.741 129.563 100.573 129.642 100.616 129.164C100.629 129.021 100.867 128.557 100.832 128.45C100.718 128.096 100.356 128.49 100.8 127.331C100.82 127.28 100.88 127.478 100.94 127.3C101.326 126.154 101.161 125.943 101.497 124.678C101.759 123.695 102.375 121.949 102.685 120.832C103.007 120.94 103.207 119.84 103.09 119.35C103.282 118.615 103.459 117.821 103.655 117.106C103.722 116.861 103.778 117.044 103.795 117.015C104.062 116.572 103.916 116.202 103.942 116.041C104.238 114.288 104.672 112.909 104.792 111.193C104.795 111.133 104.594 111.002 104.823 110.581C104.838 110.554 104.853 111.121 104.981 110.337C105.108 109.567 105.425 108.059 105.429 106.964C105.432 106.691 105.322 105.999 105.496 105.469C105.519 105.398 105.575 105.482 105.616 105.38C105.748 105.05 105.545 104.854 105.749 104.471C105.951 104.085 106.128 103.241 106.008 102.126C106.004 102.089 105.839 101.831 105.839 101.474C105.839 100.907 105.848 100.108 105.812 99.5271C105.796 99.249 105.704 99.4332 105.7 99.385C105.519 97.5007 105.451 96.1609 105.071 94.178C105.001 93.8093 104.624 92.8086 104.516 92.0984C104.385 91.313 105.113 91.9381 104.387 90.2388C104.077 89.5518 103.205 88.9296 102.878 87.6259C101.646 85.3932 100.37 83.3795 98.4972 81.5891C98.4154 81.5108 98.0584 81.3624 97.869 81.1752C97.5877 80.8965 97.4739 80.6959 97.2647 80.4981C96.3622 79.6498 95.5188 79.0486 94.5599 78.3425C94.1942 78.0772 94.3689 78.1149 93.9458 77.8184C93.5209 77.5255 93.1853 77.409 92.5994 76.9933C92.3821 76.8399 92.1798 76.6573 91.9536 76.4658C91.7286 76.2723 91.4712 76.0679 91.1535 75.8861C91.0433 76.0281 90.6183 75.7889 89.8158 75.4502C89.6624 75.3858 89.7966 75.5177 89.7227 75.49C89.421 75.3785 89.173 75.2074 88.8817 75.1109C88.8107 75.0873 88.7833 75.1391 88.7239 75.1228C88.2232 74.9868 87.4955 74.5322 87.369 74.4562C86.8861 74.1611 86.616 74.1325 86.2293 73.942C85.8437 73.7534 86.454 73.9503 85.9963 73.7481C85.0443 73.3284 83.7868 72.8774 82.7916 72.5305C82.3943 72.3924 82.642 72.5543 82.5846 72.5362C81.7547 72.2673 80.9448 71.9232 80.4419 71.9081C79.9771 71.3823 79.9269 71.7751 78.7701 71.346C78.6679 71.3091 78.6071 71.1171 78.9696 71.2003C79.3381 71.2853 79.8715 71.5051 80.3798 71.6264C80.4976 71.6539 81.2209 71.718 81.3216 71.7408C82.067 71.903 82.0821 72.1848 82.1171 72.2114C82.495 72.5016 83.3742 72.6216 83.5915 72.6857C84.5976 72.9824 85.4126 73.3278 86.2424 73.6084C86.7848 73.7933 86.9043 73.6464 87.3205 73.8211C88.7018 74.4115 89.0659 74.8573 90.4396 75.2728C90.7304 75.3664 90.5632 75.0357 91.4572 75.6919C91.4935 75.7192 91.8016 75.9652 92.1256 76.1736C92.2891 76.2781 92.4582 76.3729 92.6082 76.4263C92.6658 76.4468 92.6965 76.3929 92.7668 76.4294C93.2364 76.6754 93.5047 76.9031 93.9865 77.1922C94.4613 77.4771 95.0495 77.8418 95.5643 78.2545C95.8742 78.501 96.1909 78.9037 96.3147 79.0424C96.6603 79.4294 97.1871 79.6966 97.3655 79.9956C97.5405 80.2948 96.9602 79.9811 97.547 80.6109C97.687 80.5069 97.861 80.4282 98.0173 80.3378C99.3911 81.6244 100.607 83.0955 101.699 84.6653C101.834 84.8593 101.778 84.6053 101.924 84.8128C102.539 85.6965 102.962 86.5489 103.494 87.5257C103.907 88.2874 104.393 89.1123 104.746 89.9517C104.747 90.5421 105.252 91.7881 105.479 92.7315C105.56 93.0622 105.496 93.0551 105.537 93.2941C105.681 94.1976 105.772 93.7384 105.86 93.9767C106.218 95.003 105.795 95.1716 105.997 96.414C106.009 96.4819 106.358 97.2526 106.385 97.3644C106.565 98.0633 106.314 97.4907 106.344 97.9365C106.392 98.7529 106.375 99.3237 106.49 100.268C106.524 100.543 106.703 101.211 106.585 101.76C106.569 101.831 106.485 101.792 106.481 101.848C106.4 102.871 106.658 102.905 106.735 103.502C106.811 104.106 106.579 105.008 106.513 105.187C106.345 105.66 106.476 104.813 106.463 104.787C106.318 104.473 106.312 105.131 106.262 105.635C105.994 105.688 105.953 106.394 106.21 106.158C106.238 106.131 106.243 105.735 106.262 105.635C106.491 106.092 106.463 106.903 106.13 107.717C105.971 108.103 105.886 107.708 105.788 108.926C105.739 109.48 105.952 109.292 105.937 109.789C105.907 110.896 105.497 112.335 105.319 113.451C105.253 113.863 105.43 113.483 105.389 113.765C105.279 114.512 105.067 115.171 104.954 115.912C104.944 115.98 105.087 115.84 105.04 116.07C104.683 117.831 104.258 119.328 103.795 121.151C103.576 122.017 103.222 123.605 102.961 124.499C102.514 126.053 101.793 127.919 101.438 129.255C101.206 130.13 101.378 129.973 101.346 130.366C101.286 131.125 100.628 132.304 100.532 132.46C100.529 132.465 100.729 131.715 100.548 132.092C100.353 132.283 100.534 132.452 100.532 132.46C100.47 132.566 99.9888 134.032 99.9195 134.333C99.8824 134.496 100.021 134.442 99.9999 134.526C99.487 136.536 98.8984 138.519 98.2226 140.502C98.2093 140.536 98.0977 140.443 98.0681 140.524C97.6506 141.662 97.5774 142.455 97.3791 143.438C97.1811 144.421 96.9211 145.169 96.5244 145.666C96.3344 146.397 95.9281 147.394 95.6902 147.976C95.4529 148.556 95.6891 148.715 95.6789 148.77C95.3716 150.449 94.9528 151.36 94.4707 153.05C94.2395 153.856 93.8606 155.481 93.6783 156.362C93.5309 157.067 93.3671 157.472 93.2596 158.122C93.2451 158.21 93.3871 158.151 93.3857 158.179C93.3687 158.926 93.1489 158.514 93.0619 158.649C92.9727 158.788 92.8947 158.911 92.8262 159.039C92.6363 159.412 92.5159 159.787 92.2798 160.523C92.2143 160.749 92.2679 161.629 92.0007 162.052C91.6604 162.584 91.6792 162.301 91.2905 162.817C91.2553 162.859 91.3407 162.923 91.0587 163.207C89.7264 164.526 88.0392 165.31 86.6098 166.067C86.4127 166.17 86.7376 166.182 86.4557 166.332C85.3768 166.905 84.2723 167.488 83.3061 168.088C83.0602 168.24 82.8165 168.387 82.5768 168.526C82.2576 168.71 82.3901 168.489 82.3049 168.504C81.7848 168.597 81.3613 169.211 81.2619 169.278C79.0028 170.831 77.0236 171.597 74.5432 172.882C74.4153 172.952 73.4599 173.733 72.8693 173.672C72.8281 173.669 72.2471 173.599 71.8908 173.951C71.8685 173.972 72.2243 173.992 71.6923 174.185C71.1618 174.376 70.343 174.786 69.5535 174.882C69.3025 174.913 68.6724 174.821 68.0388 175.257C68.0004 175.288 67.0601 176.114 66.5687 175.871C66.4893 175.829 66.4576 175.447 65.6631 175.855C65.5108 175.933 65.8255 175.942 65.4117 176.101C64.7772 176.345 63.8783 176.444 63.0972 176.773C62.9613 176.831 62.396 177.207 61.8718 177.094C61.79 177.076 61.9141 176.924 61.6539 176.953C60.4158 177.09 59.1315 177.34 57.8638 177.357C57.4159 177.362 57.6272 177.134 57.1606 177.112C56.6934 177.09 55.7622 177.082 55.2798 177.191C54.7963 177.3 55.3368 177.626 54.6038 177.667C51.4083 177.836 48.2511 177.364 45.1405 176.761C44.678 176.669 45.0386 176.865 44.355 176.733C41.8333 176.285 37.5442 175.105 35.5904 174.023C34.0244 173.177 36.1441 173.844 34.9315 173.267C34.3505 172.988 33.5428 173.082 33.3914 173.03C31.9345 172.534 31.0477 171.908 29.7904 171.329C29.5304 171.208 29.7033 171.483 29.4845 171.379C28.7397 171.027 27.996 170.538 27.307 170.163C26.9955 169.994 26.989 170.136 26.7099 169.964C26.0387 169.55 25.4758 169.15 24.8911 168.646C24.8381 168.601 25.319 168.713 24.8317 168.403C24.6547 168.29 24.4712 168.165 24.2821 168.034C23.7115 167.631 23.0211 167.21 22.2656 166.95C21.974 166.85 21.8444 167.112 21.3203 166.638C21.2071 166.536 21.5342 166.309 20.6693 166.221C20.5407 166.219 19.0397 165.911 18.5405 165.193C18.4105 165.014 18.1793 164.47 17.8249 164.18C17.7747 164.14 17.8449 164.435 17.5581 164.167C16.7614 163.411 16.1594 162.367 15.8023 161.341C15.722 161.12 15.6392 160.898 15.5531 160.677C15.4448 160.401 15.4322 160.872 15.2755 160.458C14.8399 159.31 14.3744 157.873 14.0093 156.717C13.875 156.29 14.1082 156.534 14.1111 156.499C14.162 155.933 13.7521 155.759 13.6753 155.605C13.2021 154.645 13.0574 153.817 12.6771 152.915C12.5717 152.664 12.4937 152.899 12.4618 152.853C12.1378 152.374 12.5462 152.669 12.4499 152.324C12.1778 151.35 11.7782 150.327 11.4004 149.383C11.2616 149.037 11.2408 149.493 11.1181 149.181C10.3927 147.351 9.68209 145.423 9.10095 143.575C8.99161 143.226 9.20238 143.393 9.20571 143.311C9.23314 142.745 8.68339 142.133 8.59525 141.978C8.19453 141.271 8.20233 140.933 7.93923 140.276C6.64604 137.063 5.33043 132.98 4.41981 129.819C4.32859 129.505 4.24006 129.195 4.15397 128.889C3.12531 125.197 2.44071 122.138 1.67155 118.42C1.61992 118.165 1.48974 118.458 1.44317 118.238C0.84958 115.377 0.518248 112.508 0.277952 109.576C0.258889 109.333 0.111642 109.696 0.0762811 109.305C0.00271637 108.503 -0.0230786 107.492 0.0237313 106.681C0.04623 106.283 0.193232 106.814 0.213324 106.414C0.261758 105.482 0.294687 104.508 0.321068 103.549C0.332798 103.142 0.129278 103.748 0.159115 103.219C0.367394 99.6324 1.00692 96.0604 2.47064 92.6862C2.57204 92.4548 2.94144 92.3578 3.08231 91.8454C3.01663 91.7768 2.92106 91.7415 2.84157 91.6914C4.78023 86.7703 8.17444 82.5357 12.1957 79.2687C12.3663 79.1299 11.9823 79.2662 12.3143 78.9971C12.6771 78.7048 13.0461 78.4169 13.4231 78.1339C15.0432 76.9248 16.7282 75.9377 18.5494 75.0642C18.7722 74.9585 18.7629 75.198 19.3858 74.8323C19.4944 74.7663 20.4492 74.2434 20.6804 74.0823C20.7118 74.0595 20.4902 74.0652 20.8034 73.9071C22.6251 72.9916 24.5768 72.139 26.4635 71.399C26.7688 71.2795 26.4829 71.4902 26.6979 71.4066C27.3824 71.1405 28.1118 70.8373 28.8205 70.5605L28.4378 71.1302C28.4556 70.1985 28.4761 69.2723 28.5289 68.4116C28.5924 67.3636 28.7038 67.7516 28.8246 67.1947C28.8415 67.1159 28.8499 66.467 28.9142 66.4334C29.0751 66.3473 29.2544 66.6616 29.4265 66.5326C29.455 66.5116 29.4289 65.9884 29.4602 65.9883C29.4603 65.9883 29.4603 65.9883 29.4603 65.9883C29.4695 65.9883 29.4837 66.0338 29.5062 66.1508C29.5126 66.1868 29.5552 66.8169 29.59 66.9721C29.6141 67.0802 29.676 66.8854 29.7096 67.1059C29.7435 67.3263 29.6928 67.5686 29.7359 67.9341C29.7801 68.2994 29.8553 68.1388 29.888 68.8684ZM94.6369 150.582C94.353 151.102 94.7935 151.315 94.8518 150.683C94.8542 150.653 94.6512 150.555 94.6369 150.582ZM100.35 83.2737C100.721 83.9595 101.191 84.2636 100.953 83.7626C100.706 83.259 100.236 83.0676 100.35 83.2737ZM94.5103 77.9903C95.185 78.6009 95.5512 78.3506 94.708 77.8484C94.6585 77.8193 94.4701 77.9548 94.5103 77.9903ZM28.8366 69.7773C28.8401 69.7693 28.847 69.3028 28.8437 69.2917C28.765 69.0433 28.7483 69.9761 28.8366 69.7773ZM87.6314 74.3534C87.8658 74.507 88.6165 74.7708 88.3286 74.5738C88.0973 74.4142 87.3396 74.1607 87.6314 74.3534ZM75.0418 171.136C75.0301 171.133 74.7237 171.27 74.7488 171.308C74.8305 171.429 75.2365 171.19 75.0418 171.136ZM78.2697 67.9174C78.262 69.8662 77.9818 71.0477 78.0184 68.9256C78.0245 68.5413 78.1035 69.7538 78.1288 69.2647C78.1733 68.3697 78.0067 67.7754 78.0974 66.862C78.1132 66.6967 78.2702 67.8063 78.2701 67.9209C78.2699 67.9198 78.2698 67.9186 78.2697 67.9174ZM93.9904 150.744C93.9809 150.754 93.8486 151.198 93.8518 151.211C93.9308 151.494 94.1966 150.598 93.9904 150.744ZM56.2342 175.68C56.208 175.669 55.1409 175.693 55.1063 175.705C54.5531 176.014 56.7255 175.966 56.2342 175.68ZM102.698 120.816C102.697 120.291 102.832 119.703 103.089 119.352C102.96 119.836 102.834 120.327 102.698 120.816Z" fill="#A354E8" style="fill:#A354E8;fill:color(display-p3 0.6382 0.3276 0.9100);fill-opacity:1;"/>
<ellipse cx="36.0171" cy="155.119" rx="13.7119" ry="2.28531" transform="rotate(-27.139 36.0171 155.119)" fill="#FCFADA" style="fill:#FCFADA;fill:color(display-p3 0.9882 0.9804 0.8549);fill-opacity:1;"/>
<ellipse cx="49.1578" cy="143.693" rx="13.7119" ry="2.28531" transform="rotate(-27.139 49.1578 143.693)" fill="#FCFADA" style="fill:#FCFADA;fill:color(display-p3 0.9882 0.9804 0.8549);fill-opacity:1;"/>
<ellipse cx="68.5289" cy="144.871" rx="13.7119" ry="2.28531" transform="rotate(-1.36157 68.5289 144.871)" fill="#A354E8" style="fill:#A354E8;fill:color(display-p3 0.6382 0.3276 0.9100);fill-opacity:1;"/>
<ellipse cx="67.9576" cy="148.299" rx="13.7119" ry="2.28531" transform="rotate(-1.36157 67.9576 148.299)" fill="#C991FB" style="fill:#C991FB;fill:color(display-p3 0.7882 0.5686 0.9843);fill-opacity:1;"/>
<ellipse cx="66.815" cy="151.156" rx="13.7119" ry="2.28531" transform="rotate(-1.36157 66.815 151.156)" fill="#A354E8" style="fill:#A354E8;fill:color(display-p3 0.6382 0.3276 0.9100);fill-opacity:1;"/>
<ellipse cx="66.815" cy="154.584" rx="13.7119" ry="2.28531" transform="rotate(-1.36157 66.815 154.584)" fill="#E3C3FF" style="fill:#E3C3FF;fill:color(display-p3 0.8902 0.7647 1.0000);fill-opacity:1;"/>
<ellipse cx="64.8065" cy="158.005" rx="17.6341" ry="2.28531" transform="rotate(-1.36157 64.8065 158.005)" fill="#EFDDFF" style="fill:#EFDDFF;fill:color(display-p3 0.9373 0.8667 1.0000);fill-opacity:1;"/>
<ellipse cx="64.4515" cy="160.961" rx="17.6341" ry="2.28531" transform="rotate(-1.36157 64.4515 160.961)" fill="#E3C3FF" style="fill:#E3C3FF;fill:color(display-p3 0.8902 0.7647 1.0000);fill-opacity:1;"/>
<circle cx="43.9114" cy="131.406" r="11.4266" fill="#FCFADA" style="fill:#FCFADA;fill:color(display-p3 0.9882 0.9804 0.8549);fill-opacity:1;"/>
<circle cx="63.3367" cy="100.554" r="11.4266" fill="#FCFADA" style="fill:#FCFADA;fill:color(display-p3 0.9882 0.9804 0.8549);fill-opacity:1;"/>
<ellipse cx="55.0522" cy="63.4176" rx="21.4248" ry="1.71398" fill="#150523" style="fill:#150523;fill:color(display-p3 0.0824 0.0196 0.1373);fill-opacity:1;"/>
<path d="M30.0756 64.1679C30.2431 64.2559 30.4939 64.3685 30.7762 64.4748C31.0233 64.5665 31.3434 64.6758 31.6027 64.7593C31.754 64.8076 31.6579 64.8404 31.7645 64.8769C31.9753 64.9489 32.1989 64.9694 32.4336 65.0441C32.5117 65.0694 32.3868 65.1373 32.4698 65.1623C32.8945 65.2909 33.297 65.3366 33.7754 65.4347C35.9981 65.8855 38.2603 66.1292 40.5669 66.3478C41.3331 66.4186 42.2474 66.6055 43.0581 66.5904C43.1499 66.5882 43.1051 66.4556 43.1232 66.4458C43.4078 66.2946 43.2981 66.5529 43.4746 66.5971C44.1716 66.7711 44.9992 66.8251 45.6771 66.7985C45.9711 66.7871 45.6921 66.5032 45.9789 66.6672C45.9989 66.6783 45.9167 66.8216 45.9964 66.8403C46.1771 66.8826 46.5268 66.8694 46.6692 66.8861C46.9435 66.9193 46.9893 66.9195 47.2511 66.93C47.6025 66.9453 48.0168 67.0332 48.3982 67.01C48.4796 67.0046 48.3781 66.8465 48.5083 66.8235C48.6385 66.8006 48.981 66.8222 49.0958 66.8618C49.2106 66.9014 49.1572 67.0232 49.1768 67.0518C49.3386 67.2944 49.7471 66.9741 49.7966 66.9665C50.7229 66.8463 51.5226 67.049 52.3928 67.0593C53.0487 67.0663 53.7518 67.0091 54.3784 67.0189C54.3836 67.019 54.3887 67.0191 54.3939 67.0192C55.1449 67.0329 55.782 67.1186 56.5096 67.0983C56.5864 67.0963 56.495 66.9084 56.5886 66.9056C57.5936 66.8757 58.5706 66.8808 59.5761 66.9831C59.6765 66.9935 59.5518 67.1618 59.6524 67.1821C60.2711 67.3031 61.2344 67.5964 61.5787 66.8654C61.9963 66.8781 62.4986 66.8864 62.872 67.0138C63.1127 67.0956 62.8918 67.2852 63.1783 67.1952C63.2428 67.175 63.1502 67.0225 63.2474 67.0042C63.6517 66.9275 64.1267 66.9535 64.5308 66.8493C64.6136 66.8278 64.5824 66.6892 64.6046 66.6627C64.7912 66.4476 65.1402 66.7646 65.2133 66.7844C65.7592 66.9332 66.1803 66.832 66.6897 66.7985C66.8086 66.7906 66.6538 66.6145 66.7675 66.6003C67.3538 66.5293 67.9607 66.495 68.5575 66.5224C68.6885 66.529 68.5849 66.6981 68.6483 66.7093C68.9276 66.7565 68.9576 66.4528 69.2204 66.4915C69.2757 66.4993 69.2592 66.6371 69.2706 66.6509C69.4492 66.8676 69.5472 66.5245 69.5853 66.5132C70.0826 66.3604 70.4642 66.6637 70.9429 66.5554C71.0001 66.5421 70.8483 66.3891 71.0099 66.3621C72.0924 66.1798 73.2491 66.0562 74.3509 65.9776C74.5166 65.9661 74.4261 66.1127 74.4392 66.126C74.654 66.3314 74.6938 65.9901 74.7421 65.9676C75.1645 65.7902 75.6328 65.9584 75.808 65.5154C77.1636 65.2875 78.8859 64.5665 79.0596 63.9717C79.0993 63.8537 79.0577 63.6427 78.8271 63.3658C78.8129 63.3491 78.9391 63.2521 78.913 63.2218C78.5781 62.8659 78.4816 63.1093 78.0537 63.2095C77.9601 63.2423 77.8772 62.8153 77.8596 62.7808C77.8159 62.6581 77.9908 62.4846 77.9705 62.4557C77.7871 62.2224 77.536 62.9337 77.2257 62.8182C77.2171 62.8138 77.3016 62.697 77.2822 62.6752C77.2215 62.6072 77.1268 62.6323 77.0645 62.5608C76.9212 62.3965 76.9627 62.0256 76.5979 62.1384C76.5507 62.1537 76.4939 62.5779 76.1926 62.4718C76.092 62.4332 75.592 62.3107 75.4466 62.2494C75.3053 62.1876 75.4374 62.0795 75.4283 62.0712C75.0622 61.802 75.2314 61.7653 75.0762 61.4597C74.9305 61.1589 74.8592 61.7874 74.766 61.8393C74.6749 61.8912 74.4184 61.6888 74.355 61.6248C74.2929 61.5606 74.3989 61.494 74.3402 61.4532C73.945 61.1861 74.0943 61.7227 73.9346 61.7935C73.5559 61.9614 73.3673 61.4594 73.0822 61.3676C73.0033 61.3424 73.0526 61.4566 72.9791 61.4546C72.6874 61.4454 72.5333 61.2769 72.1754 61.3566C72.1191 61.37 71.7956 61.6001 71.6556 61.3779C71.6356 61.3459 71.7187 61.2428 71.6013 61.2011C71.4262 61.1387 71.098 61.0713 70.8922 61.0838C70.7405 61.0931 70.8883 61.2984 70.7083 61.218C70.628 61.1823 70.7957 61.0934 70.6433 61.0354C70.4924 60.9774 70.0853 60.9352 69.9282 60.9218C69.7813 60.9095 69.8464 61.0571 69.8336 61.0652C69.7565 61.1107 69.4666 61.1466 69.4412 61.1438C68.1525 61.0216 66.9897 60.6926 65.7051 60.6792C65.6073 60.6781 65.6628 60.8239 65.6478 60.8251C65.3103 60.861 65.5983 60.5039 65.3719 60.3633C65.3875 60.6513 65.2528 60.5903 65.013 60.6064C64.8973 60.6144 64.9531 60.7286 64.942 60.7392C64.762 60.8954 64.6558 60.672 64.6275 60.6262C64.5235 60.4572 64.3888 60.6413 64.3173 60.5286C64.2456 60.4169 64.4334 60.2678 64.2015 60.2572C64.131 60.3546 64.2884 60.6287 64.1103 60.6614C63.434 60.7824 62.2416 60.5173 61.7011 60.4764C61.1681 60.4339 61.0066 60.4465 60.6997 60.4005C60.1477 60.3186 60.3449 60.5137 59.9978 60.5879C59.6492 60.6622 59.8294 60.2084 59.7821 60.1081C59.7355 60.0082 59.6793 60.1084 59.6195 60.0528C59.5598 59.9973 59.6936 59.9332 59.5505 59.9098C59.4072 59.8864 59.0101 60.053 58.9593 60.1539C58.8486 60.368 59.0186 60.5992 58.6454 60.5101C58.6239 60.5049 58.6962 60.3874 58.6138 60.3735C57.9592 60.2674 57.2704 60.2513 56.6113 60.1663C56.5209 60.1545 56.6027 60.0263 56.5502 60.018C56.0019 59.9327 56.1965 60.1509 55.8951 60.3879C55.9638 60.0699 55.7982 59.8739 55.3803 59.8732C55.1292 59.8726 55.1724 60.0103 55.0102 60.1072C54.9616 60.1363 54.7838 60.0425 54.7518 60.107C54.6463 60.3174 54.814 60.5525 54.3841 60.4583C54.3652 60.4539 54.4247 60.3393 54.3595 60.3324C53.938 60.288 53.889 60.5057 53.4347 60.5327C53.0786 60.5536 52.4437 60.4276 52.0384 60.4124C52.0412 60.0739 51.6566 60.1591 51.5055 60.3925C51.2411 60.3872 50.9566 60.4052 50.7014 60.3789C50.6136 60.37 50.6687 60.2732 50.6574 60.2631C50.4839 60.1051 50.3753 60.3292 50.3188 60.3389C49.7102 60.4363 49.1949 60.2871 48.6127 60.4652C48.592 60.4717 48.5663 60.6936 48.4034 60.5373C48.3928 60.5266 48.5829 60.4196 48.3064 60.4213C48.0279 60.4225 47.5128 60.3261 47.126 60.443C47.0331 60.4713 46.8045 60.6546 46.6087 60.5274C46.5825 60.5102 46.6072 60.4478 46.5691 60.4155C46.4459 60.3129 46.3925 60.5305 46.2454 60.3553C46.0983 60.18 45.8035 60.0619 45.4266 60.2085C45.4146 60.2129 45.3333 60.3848 45.213 60.3889C45.0214 60.3955 44.7346 60.3782 44.5311 60.3922C44.4331 60.399 44.5023 60.4966 44.4854 60.4995C43.8281 60.5967 43.3754 60.5362 42.6665 60.5523C42.5352 60.5554 42.1731 60.7156 41.9167 60.6323C41.6355 60.5423 41.8731 60.0475 41.2608 60.2194C41.0158 60.2903 40.754 60.899 40.2615 60.6454C39.3829 60.8064 38.5645 60.7507 37.6893 60.9658C37.6505 60.9754 37.5463 61.1402 37.4551 61.1498C37.3196 61.1639 37.2368 61.1049 37.1408 61.1134C36.7309 61.1483 36.3375 61.2645 35.9477 61.3157C35.7987 61.3356 35.8394 61.2593 35.6632 61.2839C35.4832 61.3098 35.4027 61.4135 35.1358 61.4155C34.9397 61.4159 34.7194 61.2726 34.4715 61.3C34.4951 61.4749 34.3253 61.5028 34.0481 61.6051C33.995 61.6248 34.0657 61.6721 34.0412 61.6844C33.9412 61.7359 33.8388 61.706 33.7425 61.7602C33.7175 61.7736 33.7283 61.8311 33.7087 61.8452C33.5412 61.9669 33.2209 61.9035 33.1667 61.8935C32.9574 61.854 32.8883 61.9473 32.7405 61.9492C32.5935 61.9516 32.7911 61.8595 32.6241 61.8808C32.3041 61.9182 31.7863 62.0739 31.4671 62.1774C31.3345 62.2204 31.4474 62.2591 31.4289 62.2669C31.1866 62.3636 30.8093 62.4257 30.724 62.6132C30.388 62.3662 30.6007 62.6926 30.1633 62.8292C30.1297 62.8403 30.0075 62.7161 30.1248 62.6272C30.2632 62.5287 30.4257 62.511 30.5822 62.4021C30.6152 62.3775 30.7923 62.1321 30.825 62.1094C31.0642 61.9342 31.1995 62.1654 31.2107 62.1762C31.3962 62.2745 31.6185 62.0174 31.6933 61.981C32.0208 61.819 32.3725 61.7622 32.6282 61.6527C32.8087 61.5783 32.7857 61.3971 32.9395 61.3638C33.4564 61.2532 33.7113 61.4672 34.1226 61.147C34.215 61.0781 34.0718 60.8943 34.4728 60.979C34.4979 60.9839 34.8028 61.0782 34.9513 60.9525C34.9699 60.9366 34.9586 60.8757 34.9851 60.8653C35.1673 60.7963 35.2866 60.8245 35.4692 60.767C35.652 60.7094 35.875 60.633 36.0995 60.6168C36.2345 60.6067 36.4252 60.6974 36.4944 60.7165C36.6878 60.7723 36.8749 60.6017 36.9949 60.689C37.1174 60.7773 36.9275 60.9653 37.2205 60.9931C37.2081 60.8218 37.2089 60.6437 37.203 60.4699C37.8247 60.381 38.5099 60.346 39.1366 60.26C39.2153 60.249 39.1241 60.1625 39.2083 60.148C39.5645 60.0871 39.889 60.119 40.2687 60.0474C40.5644 59.9914 40.8791 59.8488 41.1744 59.7888C41.3773 59.9854 41.8209 59.8663 42.1552 59.8542C42.2721 59.85 42.2691 59.9101 42.3536 59.9217C42.6727 59.9648 42.5106 59.7809 42.5944 59.7416C42.9591 59.5729 43.0135 60.0216 43.4387 59.9763C43.461 59.9743 43.7202 59.7074 43.7576 59.6886C43.9939 59.5686 43.8036 59.7706 43.9569 59.7764C44.2374 59.7872 44.4352 59.8322 44.7611 59.7345C44.8554 59.706 45.081 59.5313 45.268 59.64C45.2929 59.6542 45.2844 59.7388 45.304 59.7424C45.659 59.8003 45.654 59.5357 45.8508 59.4311C46.0479 59.3263 46.371 59.4894 46.4376 59.5393C46.6115 59.6672 46.3125 59.6064 46.3042 59.6206C46.2064 59.7884 46.4331 59.7465 46.6089 59.7499C46.6471 60.0128 46.8912 59.9841 46.7912 59.7525C46.7798 59.7273 46.6446 59.76 46.6089 59.7499C46.7498 59.4816 47.0188 59.429 47.3294 59.6582C47.4725 59.766 47.3477 59.9073 47.7628 59.8373C47.9514 59.8057 47.8705 59.6228 48.0362 59.5631C48.4152 59.4259 48.9232 59.5776 49.3218 59.5329C49.4666 59.5164 49.3218 59.4176 49.4207 59.4026C49.685 59.362 49.9142 59.4317 50.1753 59.3803C50.199 59.3755 50.1379 59.2665 50.2193 59.2617C50.8369 59.2225 51.3792 59.275 52.0292 59.2573C52.3408 59.2486 52.8986 59.1691 53.2229 59.174C53.785 59.1811 54.4773 59.342 54.957 59.2943C55.27 59.2633 55.2013 59.1437 55.3355 59.0597C55.595 58.8959 56.0525 59.1779 56.1136 59.2229C56.1155 59.2244 55.8464 59.255 55.9896 59.3165C56.0725 59.4464 56.1105 59.2235 56.1136 59.2229C56.1541 59.2512 56.6906 59.2766 56.7973 59.253C56.8557 59.24 56.8241 59.1234 56.8546 59.1187C57.5787 59.0114 58.3022 58.9802 59.0273 59.0419C59.04 59.0445 59.018 59.1786 59.0479 59.1829C59.4696 59.2471 59.7479 59.086 60.1 58.9916C60.4524 58.8976 60.728 58.9345 60.9256 59.1746C61.1885 59.1502 61.5576 59.2637 61.7771 59.3341C61.9937 59.4044 62.0346 59.1346 62.0541 59.1297C62.6613 58.9747 62.9999 59.1407 63.61 59.1887C63.8997 59.2117 64.4996 59.1973 64.8183 59.182C65.072 59.1693 65.219 59.2424 65.4517 59.2123C65.4832 59.2083 65.4597 59.0818 65.4695 59.0775C65.7359 58.941 65.5926 59.2405 65.6419 59.2979C65.8204 59.507 65.9275 59.6201 66.2734 59.5472C66.3524 59.5307 66.6104 59.1007 66.7533 59.0831C66.9388 59.0613 66.8578 59.2167 67.0513 59.1903C67.0678 59.1882 67.0722 59.0893 67.1891 59.1012C67.729 59.1552 68.3141 59.2563 68.8933 59.2948C68.9714 59.3003 68.8866 59.1331 68.9997 59.1384C69.5357 59.164 70.0774 59.2187 70.6089 59.3502C70.7351 59.3827 70.6414 59.487 70.6654 59.5234C70.8121 59.7441 71.0859 59.4761 71.1261 59.4747C72.0517 59.4335 72.7995 59.8049 73.7332 59.8206C73.7893 59.8216 74.2695 59.5694 74.4005 59.8773C74.4102 59.8977 74.5361 60.2116 74.7289 60.0477C74.741 60.0375 74.6594 59.8717 74.8485 59.9222C75.0413 59.9737 75.3445 59.9308 75.6057 60.154C75.6842 60.2233 75.8247 60.5496 76.13 60.3847C76.149 60.3723 76.6686 59.9596 76.7081 60.344C76.717 60.4083 76.5794 60.7655 76.958 60.6665C77.0298 60.6472 76.9423 60.5335 77.1188 60.528C77.3908 60.5197 77.6722 60.7143 78.0073 60.6494C78.0507 60.6318 78.4117 60.4822 78.5244 60.7423C78.542 60.7831 78.4377 60.88 78.5302 60.9332C78.7555 61.0634 78.9561 61.1477 79.2134 61.2794C79.4845 61.4193 79.7426 61.5782 79.9512 61.7933C80.0923 61.9447 79.8904 62.0476 80.0419 62.2592C80.2102 62.4891 80.4698 62.8726 80.7022 63.2432C80.904 63.592 81.1387 63.0372 81.2821 63.7251C81.2963 63.8297 81.3036 63.9357 81.3039 64.0414C81.226 65.6896 80.0934 66.2833 79.6096 66.5797C78.9154 66.9559 78.4308 67.0838 77.8322 67.2886C77.6726 67.3401 77.8456 67.4107 77.6078 67.4942C76.6722 67.829 75.163 68.2919 74.3747 68.1692C73.7198 68.0773 74.4664 67.772 73.9804 67.775C73.7477 67.7759 73.5561 68.2213 73.514 68.2417C73.0259 68.4579 72.6309 68.3374 72.1528 68.4637C72.0535 68.4898 72.1756 68.6394 72.0905 68.6599C71.788 68.7328 71.5097 68.6965 71.2369 68.7462C71.1168 68.7685 71.1548 68.8916 71.0415 68.8964C70.7703 68.9092 70.5231 68.8859 70.2417 68.7989C70.2161 68.791 70.3629 68.6143 70.159 68.6322C69.8218 68.6624 69.4395 68.5857 69.08 68.7454C68.9745 68.7931 68.9988 69.0846 68.7428 68.9074C68.6888 68.8704 68.7202 68.5146 68.4713 68.8437C68.4337 68.8981 67.9853 69.3524 67.7501 69.1078C67.6856 69.0437 67.5123 68.7697 67.3863 68.8259C67.3692 68.8346 67.4528 68.9856 67.3462 69.0102C66.97 69.094 66.5649 69.1095 66.1675 69.1888C66.0612 69.2102 66.2325 69.3616 66.0736 69.3884C65.635 69.4625 65.1106 69.4565 64.6812 69.4317C64.524 69.4222 64.6239 69.2797 64.6117 69.2657C64.4154 69.0365 64.3255 69.3674 64.2655 69.39C63.8928 69.5257 63.5907 69.3892 63.2533 69.4472C63.159 69.4628 63.2337 69.6145 63.2155 69.6294C63.0259 69.7746 63.1587 69.4885 63.0331 69.464C62.6813 69.3944 62.2919 69.4248 61.9364 69.4597C61.8058 69.4728 61.9601 69.647 61.8427 69.6566C61.1397 69.7171 60.4394 69.7242 59.7566 69.6436C59.6287 69.6281 59.7053 69.4865 59.6779 69.4554C59.4896 69.2378 59.2286 69.5483 59.1671 69.5788C58.8878 69.7178 58.7804 69.5968 58.5344 69.6249C57.3339 69.7653 55.8394 69.6964 54.7031 69.6427C54.5896 69.6375 54.4781 69.6318 54.3683 69.6257C53.041 69.5509 51.968 69.4194 50.6596 69.407C50.5699 69.4059 50.6559 69.5927 50.5784 69.5939C49.5845 69.6015 48.5896 69.4816 47.5945 69.4703C47.5128 69.469 47.6233 69.6456 47.4918 69.6488C47.2249 69.6567 46.8764 69.6226 46.6038 69.5487C46.4708 69.5131 46.6577 69.3835 46.5238 69.3508C46.2122 69.2744 45.8781 69.2374 45.558 69.2376C45.4218 69.2379 45.6172 69.4225 45.4408 69.4094C44.226 69.3232 43.0611 69.2227 41.8323 68.8717C41.7495 68.8475 41.702 68.5263 41.5202 68.5656C41.4996 68.6503 41.4916 68.7519 41.4779 68.8434C39.7272 68.6704 37.9835 68.2962 36.2418 67.9328C36.1668 67.917 36.2765 68.079 36.1312 68.0484C35.313 67.875 34.4736 67.7093 33.6815 67.3691C33.6007 67.3349 33.6973 67.1445 33.4379 67.1087C33.3893 67.1025 33 67.0237 32.8957 67.0369C32.8811 67.0393 32.9279 67.1506 32.8073 67.117C32.1414 66.9277 31.3831 66.6457 30.727 66.2996C30.6134 66.2406 30.7663 66.217 30.6864 66.1748C30.1515 65.8848 29.5208 65.6388 29.0632 65.087C28.7819 64.6988 29.0029 64.768 28.9695 64.5015C28.9568 64.4646 28.867 64.1918 28.9373 64.1667C29.09 64.1126 29.2845 64.1581 29.4434 64.0826C29.4675 64.0721 29.4325 63.9915 29.466 63.991C29.466 63.991 29.466 63.991 29.466 63.991C29.4753 63.9909 29.4892 63.9987 29.5126 64.0126C29.517 64.0186 29.5758 64.0886 29.6204 64.0947C29.6486 64.0978 29.6943 64.0502 29.7356 64.0582C29.7783 64.0659 29.7506 64.1187 29.8263 64.1412C29.9083 64.1633 29.9251 64.0828 30.0756 64.1679ZM62.7458 59.6535C62.9399 59.7926 62.9913 59.3125 62.7694 59.4198C62.7586 59.4256 62.7357 59.6467 62.7458 59.6535ZM38.5147 60.5884C38.8 60.6939 38.9526 60.4675 38.7572 60.3824C38.5545 60.2995 38.4286 60.5569 38.5147 60.5884ZM35.8268 61.0739C36.1421 61.1269 36.1269 60.7038 35.8168 60.8424C35.7988 60.8503 35.8084 61.0709 35.8268 61.0739ZM29.6813 65.1773C29.6796 65.173 29.5519 65.0779 29.5482 65.0782C29.4308 65.0932 29.69 65.2907 29.6813 65.1773ZM33.1917 61.686C33.2968 61.7145 33.5636 61.5939 33.4291 61.5573C33.3194 61.5282 33.0592 61.651 33.1917 61.686ZM73.1153 61.111C73.1172 61.1193 73.2275 61.1444 73.2324 61.1C73.2483 60.9568 73.0857 60.9719 73.1153 61.111ZM29.0757 63.5963C29.2529 63.2778 29.5357 63.176 29.662 63.1591C29.7802 63.1623 29.7184 63.2497 29.4693 63.4743C29.3769 63.5583 29.6024 63.2249 29.4685 63.3187C29.2219 63.5021 29.2452 63.7458 29.1493 63.9846C29.1158 64.0507 29.024 63.65 29.076 63.5949C29.0759 63.5954 29.0758 63.5959 29.0757 63.5963ZM62.8349 60.2354C62.8387 60.2419 62.998 60.2552 63.0021 60.2491C63.0956 60.1 62.7744 60.0736 62.8349 60.2354ZM79.1907 63.5213C79.1913 63.5325 79.3095 63.7802 79.3133 63.7856C79.47 63.818 79.529 63.6878 79.4623 63.5502C79.4034 63.4275 79.2676 63.3757 79.1907 63.5213ZM52.0318 60.4034C51.8585 60.5387 51.6494 60.556 51.5063 60.3926C51.6807 60.3987 51.8562 60.3975 52.0318 60.4034Z" fill="#C991FB" style="fill:#C991FB;fill:color(display-p3 0.7882 0.5686 0.9843);fill-opacity:1;"/>
<path d="M61.8525 106.391C60.7953 106.293 59.9021 105.983 59.173 105.461C58.456 104.938 57.9395 104.215 57.6235 103.292L58.9724 102.599C59.1061 103.255 59.4403 103.814 59.975 104.276C60.5097 104.726 61.1355 105.017 61.8525 105.151L61.8525 100.922C61.0626 100.752 60.4064 100.57 59.8839 100.375C59.3735 100.169 58.9481 99.8648 58.6079 99.4638C58.2676 99.0627 58.0975 98.528 58.0975 97.8597C58.0975 97.252 58.2494 96.6991 58.5532 96.2009C58.857 95.7026 59.2884 95.2955 59.8474 94.9796C60.4186 94.6514 61.0869 94.457 61.8525 94.3962L61.8525 92.5552L63.1103 92.5552L63.1103 94.4145C64.0096 94.4874 64.7509 94.7304 65.3342 95.1436C65.9296 95.5446 66.44 96.1401 66.8654 96.93L65.6805 97.8597C65.3767 97.1548 65.0304 96.6323 64.6415 96.292C64.2526 95.9517 63.7422 95.7391 63.1103 95.654L63.1103 99.9377C63.9002 100.108 64.5503 100.296 65.0607 100.503C65.5833 100.697 66.0147 101.001 66.355 101.414C66.7074 101.827 66.8836 102.38 66.8836 103.073C66.8836 104.009 66.5433 104.774 65.8628 105.37C65.1823 105.953 64.2648 106.293 63.1103 106.391L63.1103 108.232L61.8525 108.232L61.8525 106.391ZM61.8525 95.6358C61.0748 95.7087 60.4854 95.9274 60.0844 96.292C59.6833 96.6566 59.4828 97.1427 59.4828 97.7503C59.4828 98.2971 59.6833 98.7103 60.0844 98.9898C60.4976 99.2693 61.0869 99.5002 61.8525 99.6825L61.8525 95.6358ZM63.1103 105.187C64.7144 105.054 65.5165 104.385 65.5165 103.182C65.5165 102.623 65.3038 102.198 64.8785 101.906C64.4653 101.615 63.8759 101.378 63.1103 101.195L63.1103 105.187Z" fill="#3E0E68" style="fill:#3E0E68;fill:color(display-p3 0.2431 0.0549 0.4078);fill-opacity:1;"/>
<path d="M44.1411 137.242C43.0839 137.145 42.1907 136.835 41.4615 136.312C40.7445 135.79 40.2281 135.067 39.9121 134.143L41.261 133.451C41.3947 134.107 41.7289 134.666 42.2636 135.128C42.7983 135.577 43.4241 135.869 44.1411 136.003L44.1411 131.774C43.3512 131.603 42.695 131.421 42.1724 131.227C41.662 131.02 41.2367 130.716 40.8964 130.315C40.5562 129.914 40.386 129.38 40.386 128.711C40.386 128.104 40.538 127.551 40.8418 127.052C41.1456 126.554 41.577 126.147 42.136 125.831C42.7071 125.503 43.3755 125.309 44.1411 125.248L44.1411 123.407L45.3989 123.407L45.3989 125.266C46.2981 125.339 47.0394 125.582 47.6227 125.995C48.2182 126.396 48.7286 126.992 49.1539 127.782L47.9691 128.711C47.6653 128.006 47.3189 127.484 46.9301 127.144C46.5412 126.803 46.0308 126.591 45.3989 126.506L45.3989 130.789C46.1888 130.959 46.8389 131.148 47.3493 131.354C47.8719 131.549 48.3033 131.853 48.6435 132.266C48.9959 132.679 49.1722 133.232 49.1722 133.925C49.1722 134.86 48.8319 135.626 48.1514 136.221C47.4708 136.805 46.5533 137.145 45.3989 137.242L45.3989 139.083L44.1411 139.083L44.1411 137.242ZM44.1411 126.487C43.3634 126.56 42.774 126.779 42.3729 127.144C41.9719 127.508 41.7714 127.994 41.7714 128.602C41.7714 129.149 41.9719 129.562 42.3729 129.841C42.7861 130.121 43.3755 130.352 44.1411 130.534L44.1411 126.487ZM45.3989 136.039C47.003 135.905 47.805 135.237 47.805 134.034C47.805 133.475 47.5924 133.05 47.167 132.758C46.7539 132.466 46.1645 132.229 45.3989 132.047L45.3989 136.039Z" fill="#3E0E68" style="fill:#3E0E68;fill:color(display-p3 0.2431 0.0549 0.4078);fill-opacity:1;"/>
<path d="M43.6427 146.342C43.5867 146.049 43.7225 145.703 44.05 145.306C44.3791 144.911 44.8949 144.478 45.5973 144.007L46.3254 144.031C45.8148 144.344 45.4078 144.663 45.1044 144.988C44.8107 145.308 44.6557 145.582 44.6392 145.81L48.0391 143.997C48.0757 143.736 48.1389 143.502 48.2289 143.294C48.3303 143.084 48.5205 142.853 48.7997 142.6C49.079 142.347 49.4873 142.077 50.0246 141.791C50.5131 141.53 50.9769 141.329 51.416 141.188C51.8551 141.047 52.2372 140.975 52.5621 140.972C52.8984 140.968 53.1396 141.043 53.2856 141.2L54.7657 140.41L54.9253 140.71L53.4305 141.507C53.486 141.752 53.3847 142.033 53.1266 142.349C52.8797 142.662 52.4658 143.039 51.8847 143.479L50.987 143.595C51.5151 143.221 51.8912 142.914 52.1154 142.676C52.3396 142.438 52.4458 142.225 52.434 142.038L48.9901 143.875C48.9536 144.136 48.8847 144.371 48.7834 144.581C48.6934 144.789 48.5039 145.022 48.2149 145.28C47.9274 145.541 47.5052 145.82 46.9484 146.117C46.1961 146.518 45.5374 146.765 44.9723 146.859C44.417 146.947 44.027 146.874 43.8023 146.641L42.3222 147.43L42.1626 147.131L43.6427 146.342ZM52.289 141.731C52.1317 141.577 51.8811 141.531 51.5371 141.592C51.1931 141.652 50.7768 141.813 50.2883 142.074C49.8487 142.308 49.542 142.533 49.3682 142.748C49.1959 142.966 49.0851 143.206 49.0357 143.466L52.289 141.731ZM44.7695 146.125C45.0806 146.45 45.7197 146.354 46.6869 145.838C47.1363 145.599 47.4513 145.366 47.6318 145.139C47.8138 144.916 47.9296 144.674 47.9789 144.414L44.7695 146.125Z" fill="#3E0E68" style="fill:#3E0E68;fill:color(display-p3 0.2431 0.0549 0.4078);fill-opacity:1;"/>
<path d="M29.9308 158.34C29.8748 158.047 30.0105 157.701 30.3381 157.304C30.6672 156.909 31.183 156.476 31.8854 156.005L32.6135 156.029C32.1029 156.342 31.6959 156.661 31.3925 156.987C31.0988 157.307 30.9438 157.581 30.9273 157.808L34.3272 155.995C34.3638 155.734 34.427 155.5 34.517 155.292C34.6183 155.082 34.8086 154.851 35.0878 154.598C35.3671 154.345 35.7753 154.075 36.3127 153.789C36.8012 153.528 37.265 153.327 37.7041 153.186C38.1432 153.045 38.5253 152.973 38.8502 152.97C39.1865 152.966 39.4276 153.041 39.5737 153.198L41.0538 152.408L41.2134 152.708L39.7186 153.505C39.7741 153.75 39.6728 154.031 39.4147 154.347C39.1678 154.66 38.7539 155.037 38.1728 155.477L37.275 155.593C37.8031 155.219 38.1793 154.913 38.4035 154.674C38.6277 154.436 38.7339 154.223 38.7221 154.036L35.2782 155.873C35.2417 156.134 35.1728 156.369 35.0714 156.579C34.9814 156.787 34.7919 157.02 34.5029 157.278C34.2155 157.539 33.7933 157.818 33.2364 158.115C32.4842 158.516 31.8255 158.763 31.2604 158.857C30.7051 158.945 30.3151 158.872 30.0904 158.639L28.6103 159.429L28.4506 159.129L29.9308 158.34ZM38.5771 153.729C38.4198 153.575 38.1691 153.529 37.8252 153.59C37.4812 153.65 37.0649 153.811 36.5764 154.072C36.1368 154.306 35.8301 154.531 35.6562 154.746C35.484 154.964 35.3731 155.204 35.3238 155.464L38.5771 153.729ZM31.0576 158.123C31.3687 158.448 32.0078 158.352 32.975 157.836C33.4244 157.597 33.7394 157.364 33.9199 157.138C34.1019 156.914 34.2176 156.672 34.267 156.412L31.0576 158.123Z" fill="#3E0E68" style="fill:#3E0E68;fill:color(display-p3 0.2431 0.0549 0.4078);fill-opacity:1;"/>
</svg>
