<svg width="17" height="15" viewBox="0 0 17 15" fill="none" xmlns="http://www.w3.org/2000/svg">
<path d="M10.3125 12.8457C10.9372 13.0275 11.5978 13.125 12.2812 13.125C13.3903 13.125 14.4394 12.8682 15.3723 12.4109C15.3741 12.3679 15.375 12.3247 15.375 12.2812C15.375 10.5726 13.9898 9.1875 12.2812 9.1875C11.2177 9.1875 10.2795 9.72414 9.72268 10.5414M10.3125 12.8457V12.8438C10.3125 12.0091 10.0986 11.2244 9.72268 10.5414M10.3125 12.8457C10.3125 12.8724 10.3123 12.8991 10.3118 12.9257C8.91552 13.7664 7.27985 14.25 5.53125 14.25C3.78264 14.25 2.14698 13.7664 0.75069 12.9257C0.750232 12.8985 0.75 12.8711 0.75 12.8438C0.75 10.2031 2.89064 8.0625 5.53125 8.0625C7.33719 8.0625 8.90927 9.06374 9.72268 10.5414M8.0625 3.28125C8.0625 4.67922 6.92922 5.8125 5.53125 5.8125C4.13328 5.8125 3 4.67922 3 3.28125C3 1.88328 4.13328 0.75 5.53125 0.75C6.92922 0.75 8.0625 1.88328 8.0625 3.28125ZM14.25 4.96875C14.25 6.05606 13.3686 6.9375 12.2812 6.9375C11.1939 6.9375 10.3125 6.05606 10.3125 4.96875C10.3125 3.88144 11.1939 3 12.2812 3C13.3686 3 14.25 3.88144 14.25 4.96875Z" stroke="#832AD1" style="stroke:#832AD1;stroke:color(display-p3 0.5141 0.1640 0.8200);stroke-opacity:1;" stroke-width="1.5" stroke-linecap="round" stroke-linejoin="round"/>
</svg>
